<svg width="55" height="55" viewBox="0 0 55 55" fill="none" xmlns="http://www.w3.org/2000/svg">
<path d="M18.347 4.61572C17.082 4.61572 16.0554 5.64239 16.0554 6.90739C10.9931 6.90739 6.8887 11.0118 6.8887 16.0741V18.5078L48.1386 18.3657V16.0741C48.1386 11.0118 44.0343 6.90739 38.972 6.90739C38.972 5.64239 37.9453 4.61572 36.6803 4.61572C35.4153 4.61572 34.3887 5.64239 34.3887 6.90739H20.6387C20.6387 5.64239 19.612 4.61572 18.347 4.61572ZM6.8887 22.9491V38.9907C6.8887 44.053 10.9931 48.1574 16.0554 48.1574H38.972C44.0343 48.1574 48.1386 44.053 48.1386 38.9907V22.9491H6.8887Z" fill="#D76137"/>
</svg>
