<svg width="55" height="55" viewBox="0 0 55 55" fill="none" xmlns="http://www.w3.org/2000/svg">
<path d="M27.5324 4.58081C24.3722 4.58081 21.7918 6.61126 20.9874 9.5148C18.9135 10.09 17.1581 11.7926 16.4912 13.7726C15.2514 13.7726 14.1766 13.7475 13.7824 13.7475C8.72016 13.7475 4.61578 17.8518 4.61578 22.9141V41.2474C4.61578 46.3097 8.72016 50.4141 13.7824 50.4141H41.2824C46.3447 50.4141 50.4491 46.3097 50.4491 41.2474V22.9141C50.4491 17.8518 46.3447 13.7475 41.2824 13.7475L38.5554 13.7933C37.9962 11.8797 36.1033 9.87914 34.0614 9.45059C33.2547 6.54706 30.6927 4.58081 27.5324 4.58081ZM27.5324 9.16414C28.7974 9.16414 29.8241 10.1908 29.8241 11.4558C29.8241 12.7208 30.8508 13.7475 32.1158 13.7475C33.3808 13.7475 34.4074 14.7741 34.4074 16.0391C34.4074 17.3041 33.3808 18.3308 32.1158 18.3308H22.9491C21.6841 18.3308 20.6574 17.3041 20.6574 16.0391C20.6574 14.7741 21.6841 13.7475 22.9491 13.7475C24.2141 13.7475 25.2408 12.7208 25.2408 11.4558C25.2408 10.1908 26.2674 9.16414 27.5324 9.16414Z" fill="#D76137"/>
</svg>
