<svg width="143" height="25" viewBox="0 0 143 25" fill="none" xmlns="http://www.w3.org/2000/svg">
<path d="M0.62562 24V0.684494H12.1433C14.2088 0.684494 15.8542 2.32988 15.8542 4.36036V9.36654C15.8542 10.4168 15.084 11.5721 13.9988 11.9221C14.979 12.0972 16.0293 13.0774 16.0293 14.4427V20.3241C16.0293 22.3546 14.3839 24 12.3184 24H0.62562ZM4.82661 13.9526V20.1841H10.883C11.4082 20.1841 11.8283 19.799 11.8283 19.2739V14.8628C11.8283 14.3377 11.4082 13.9526 10.883 13.9526H4.82661ZM4.82661 10.1717H10.813C11.3031 10.1367 11.6532 9.75164 11.6532 9.26152V5.41061C11.6532 4.88549 11.2331 4.50039 10.708 4.50039H4.82661V10.1717ZM24.434 19.554C24.434 20.0791 24.8541 20.4642 25.3792 20.4642H28.88C29.4051 20.4642 29.8253 20.0791 29.8253 19.554V18.7838H33.7112V20.3941C33.7112 22.4246 32.1358 24 30.0703 24H24.0489C22.0184 24 20.408 22.3546 20.408 20.3241V11.0819C20.408 9.05147 22.0184 7.40608 24.0489 7.40608H30.1053C32.1358 7.40608 33.7462 9.05147 33.7462 11.0819V16.8233H24.434V19.554ZM24.434 11.8171V13.4975H29.8603V11.8171C29.8603 11.292 29.4402 10.9069 28.915 10.9069H25.3792C24.8541 10.9069 24.434 11.292 24.434 11.8171ZM37.7754 20.6742V17.8736C37.7754 15.8431 39.1057 14.1977 41.4863 14.1977C43.2017 14.1977 45.7923 14.5128 47.1926 14.9329V11.8521C47.1926 11.327 46.7725 10.9419 46.2474 10.9419H43.1317C42.6065 10.9419 42.1864 11.327 42.1864 11.8521V12.4123H38.3005V11.0119C38.3005 8.98145 39.8759 7.40608 41.9414 7.40608H47.5777C49.6082 7.40608 51.2186 9.05147 51.2186 11.0819V24H47.1926V23.1948C45.4772 23.79 43.2017 24.3501 41.4863 24.3501C39.1057 24.3501 37.7754 22.7047 37.7754 20.6742ZM41.6963 18.4337V19.974C41.6963 20.4992 42.0464 20.8843 42.6416 20.8843C43.4818 20.8843 45.2672 20.4642 46.2474 20.1491C46.8776 19.939 47.1926 19.729 47.1926 19.3089V18.6087C47.1926 18.1886 46.9126 17.9786 46.2474 17.8385C45.3372 17.6635 43.4818 17.5235 42.6416 17.5235C42.0464 17.5235 41.6963 17.9086 41.6963 18.4337ZM59.4381 24L54.0119 7.40608H58.1778L61.6087 19.0988L65.0045 7.40608H69.2054L63.7442 24H59.4381ZM80.8936 19.624V19.0988C80.8936 19.0988 80.9986 18.3287 80.1584 18.0836C78.3029 17.5585 76.0974 16.8933 74.312 16.2982C72.8066 15.8081 71.6864 14.5478 71.6864 12.9374V11.0819C71.6864 9.05147 73.2968 7.40608 75.3272 7.40608H80.8936C82.959 7.40608 84.6044 9.05147 84.6044 11.0819V12.5873H80.7535V11.7821C80.7535 11.257 80.3334 10.8719 79.8083 10.8719H76.6576C76.1324 10.8719 75.6423 11.257 75.6423 11.7821V12.2372C75.6423 12.7273 75.9574 13.0774 76.3775 13.2175C77.7078 13.6376 80.5085 14.4427 82.2239 15.0029C84.0093 15.598 84.8495 16.7883 84.8495 18.3987V20.3241C84.8495 22.3546 83.2041 24 81.1386 24H75.2922C73.2618 24 71.6514 22.3546 71.6514 20.3241V18.7838H75.5023V19.624C75.5023 20.1491 75.9224 20.5342 76.4475 20.5342H79.9483C80.4735 20.5342 80.8936 20.1491 80.8936 19.624ZM101.148 24V14.0226H93.2362V24H89.0352V0.684494H93.2362V10.1717H101.148V0.684494H105.349V24H101.148ZM119.885 17.9436V7.40608H123.911V24H120.06V22.7397C118.52 23.3699 115.684 24.3501 113.968 24.3501C111.588 24.3501 110.258 22.7047 110.258 20.6742V7.40608H114.284V19.4839C114.284 20.0091 114.634 20.3941 115.229 20.3941C116.104 20.3941 118.134 19.624 118.94 19.3439C119.605 19.0988 119.885 18.5387 119.885 17.9436ZM142.479 10.7319V20.6742C142.479 22.7047 141.149 24.3501 138.768 24.3501C137.053 24.3501 134.462 23.4749 132.852 22.8797V24H128.826V0.684494H132.852V8.52635C134.462 7.9312 137.053 7.056 138.768 7.056C141.149 7.056 142.479 8.70139 142.479 10.7319ZM138.453 11.7821C138.453 11.257 138.103 10.8719 137.508 10.8719C136.632 10.8719 134.602 11.6071 133.797 11.9221C133.132 12.1672 132.852 12.5523 132.852 13.0774V18.3287C132.852 18.8538 133.132 19.2389 133.797 19.4839C134.602 19.799 136.632 20.5342 137.508 20.5342C138.103 20.5342 138.453 20.1491 138.453 19.624V11.7821Z" fill="#D73F09"/>
</svg>
