<svg width="55" height="55" viewBox="0 0 55 55" fill="none" xmlns="http://www.w3.org/2000/svg">
<path d="M35.5183 6.71387C29.8228 6.71387 25.2058 11.3316 25.2058 17.0264C25.2058 22.7212 29.8228 27.3389 35.5183 27.3389C41.2138 27.3389 45.8308 22.7212 45.8308 17.0264C45.8308 11.3316 41.2138 6.71387 35.5183 6.71387ZM18.3308 9.00553C13.2683 9.00553 9.16413 13.1099 9.16413 18.1722C9.16413 23.2345 13.2683 27.3389 18.3308 27.3389C20.2315 27.3389 21.9665 26.8164 23.4935 25.7485C19.5775 19.9277 20.1325 14.3543 22.2667 9.86491C21.0478 9.28741 19.709 9.00553 18.3308 9.00553ZM11.599 30.4189C7.39588 32.1536 4.5808 36.4047 4.5808 41.0889V45.6722C4.5808 46.9372 5.60677 47.9639 6.87246 47.9639L16.3893 47.9685C15.853 46.2268 16.0107 43.4034 16.046 41.1187C16.1205 36.2672 18.1268 32.8067 18.9126 31.8946C17.4684 31.8832 15.7353 31.5326 14.4636 30.9918C14.1565 30.8611 13.9782 30.758 13.3895 30.4899C12.8122 30.2264 12.1852 30.1759 11.599 30.4189ZM27.6407 30.4189C23.4375 32.1536 20.6225 36.4047 20.6225 41.0889V45.6722C20.6225 46.9372 21.6484 47.9639 22.9141 47.9639H48.1225C49.3881 47.9639 50.4141 46.9372 50.4141 45.6722V41.0889C50.4141 36.5147 47.5835 32.3668 43.3959 30.561C42.8065 30.3066 42.1197 30.2997 41.5339 30.561C39.5063 31.4708 37.5308 31.9222 35.5183 31.9222C33.5126 31.9222 31.5303 31.4455 29.4312 30.4899C28.8539 30.2264 28.2269 30.1759 27.6407 30.4189Z" fill="#D76137"/>
</svg>
