<svg width="55" height="55" viewBox="0 0 55 55" fill="none" xmlns="http://www.w3.org/2000/svg">
<path d="M7.0455 21.685C5.555 22.3106 4.62986 23.4243 4.61588 25.001C4.60625 26.1033 5.35012 27.5838 6.84062 28.1888C7.45456 28.4386 16.0747 29.5981 16.0747 29.5981C16.0747 29.5981 18.3562 36.81 19.1785 39.3446C19.4166 40.0779 19.5523 40.4377 20.0748 40.9167C20.9612 41.7279 22.4597 41.4736 23.1078 40.8227C24.8224 39.104 27.5325 36.4525 27.5325 36.4525L28.6731 37.3806C28.6731 37.3806 33.7379 41.4208 36.5065 43.3229C38.1365 44.4435 39.2679 45.6123 41.1026 45.6192C42.0372 45.6237 43.5362 45.1585 44.5271 44.0241C45.1818 43.2748 45.6019 42.0762 45.7644 41.0014C46.1338 38.5608 50.4675 12.17 50.4492 11.2464C50.4199 9.7729 49.1803 8.9433 48.15 8.95247C47.5028 8.95934 46.9695 9.14729 45.7829 9.50937C36.6039 12.3121 7.65348 21.4306 7.0455 21.685ZM41.2825 15.8275C41.2825 15.8275 29.1871 26.3554 24.3538 31.2C22.8053 32.7515 22.696 35.4144 22.696 35.4144L20.1976 27.421L41.2825 15.8275Z" fill="#D76137"/>
</svg>
